<?xml version="1.0" standalone="no"?>
<!DOCTYPE svg PUBLIC "-//W3C//DTD SVG 20010904//EN"
 "http://www.w3.org/TR/2001/REC-SVG-20010904/DTD/svg10.dtd">
<svg version="1.0" xmlns="http://www.w3.org/2000/svg"
 width="256.000000pt" height="256.000000pt" viewBox="0 0 256.000000 256.000000"
 preserveAspectRatio="xMidYMid meet">

<g transform="translate(0.000000,256.000000) scale(0.100000,-0.100000)"
fill="#000000" stroke="none">
<path d="M1166 2369 c-209 -43 -396 -234 -435 -444 -6 -32 -11 -168 -11 -302
l0 -243 -97 0 c-138 -1 -192 -27 -228 -113 -41 -98 12 -207 115 -238 49 -15
88 -5 102 26 17 39 -3 72 -51 85 -60 16 -79 62 -41 100 20 20 33 20 760 20
727 0 740 0 760 -20 11 -11 20 -29 20 -40 0 -11 -9 -29 -20 -40 -20 -20 -33
-20 -610 -20 -577 0 -590 0 -610 -20 -25 -25 -25 -55 0 -80 20 -20 33 -20 561
-20 l542 0 -5 -132 c-5 -148 -27 -230 -90 -336 -44 -76 -149 -179 -228 -225
-107 -62 -186 -82 -325 -82 -104 1 -130 5 -193 27 -104 37 -176 83 -252 158
-110 111 -174 246 -187 396 -4 55 -11 82 -25 96 -43 43 -98 6 -98 -67 0 -124
59 -298 140 -412 304 -429 936 -429 1240 0 94 133 140 286 140 474 l1 108 42
20 c129 61 127 247 -3 313 -37 18 -61 22 -141 22 l-97 0 -4 278 c-4 257 -6
282 -27 339 -81 224 -275 369 -506 378 -49 2 -112 0 -139 -6z m265 -138 c120
-45 211 -136 261 -261 21 -51 23 -74 26 -322 l3 -268 -440 0 -441 0 0 243 c0
186 4 257 15 302 41 157 158 275 316 320 71 20 187 13 260 -14z"/>
<path d="M1240 720 c-17 -17 -20 -33 -20 -110 0 -77 3 -93 20 -110 11 -11 29
-20 40 -20 11 0 29 9 40 20 17 17 20 33 20 110 0 77 -3 93 -20 110 -11 11 -29
20 -40 20 -11 0 -29 -9 -40 -20z"/>
</g>
</svg>
